<?xml version="1.0" standalone="no"?>
<!DOCTYPE svg PUBLIC "-//W3C//DTD SVG 20010904//EN"
 "http://www.w3.org/TR/2001/REC-SVG-20010904/DTD/svg10.dtd">
<svg version="1.0" xmlns="http://www.w3.org/2000/svg"
 width="1024.000000pt" height="993.000000pt" viewBox="0 0 1024.000000 993.000000"
 preserveAspectRatio="xMidYMid meet">

<g transform="translate(0.000000,993.000000) scale(0.100000,-0.100000)"
fill="#000000" stroke="none">
<path d="M5055 9924 c-117 -17 -216 -46 -318 -94 -44 -21 -49 -21 -94 -6 -231
74 -491 34 -702 -107 l-74 -50 -166 -2 c-150 -2 -173 -4 -241 -28 -138 -48
-242 -111 -336 -205 l-59 -59 -80 -7 c-139 -11 -295 -68 -410 -150 -73 -52
-176 -158 -210 -216 -25 -41 -37 -52 -70 -61 -104 -27 -176 -54 -240 -92 -161
-93 -292 -243 -359 -410 -10 -24 -25 -41 -43 -48 -247 -94 -454 -334 -504
-583 -10 -49 -15 -55 -64 -85 -28 -17 -82 -62 -120 -99 -147 -145 -231 -324
-250 -532 -7 -71 -9 -77 -49 -115 -125 -119 -201 -258 -241 -440 -14 -59 -16
-106 -13 -198 l5 -120 -47 -66 c-48 -67 -111 -208 -129 -291 -28 -131 -22
-291 15 -408 14 -42 15 -60 7 -80 -6 -15 -23 -56 -38 -91 -41 -98 -55 -157
-62 -267 -8 -142 24 -301 87 -424 12 -24 19 -52 16 -64 -23 -89 -45 -221 -46
-271 0 -164 53 -332 153 -480 l41 -60 1 -150 c0 -82 4 -157 8 -167 8 -15 -6
-16 -141 -20 -149 -3 -151 -3 -194 -33 -33 -24 -48 -45 -66 -89 l-24 -59 131
-396 c72 -218 131 -403 131 -411 0 -8 -58 -189 -129 -402 -98 -293 -128 -396
-124 -421 8 -50 53 -109 103 -134 l44 -23 792 0 792 0 26 -45 c106 -180 328
-337 524 -370 35 -6 45 -14 78 -63 135 -205 376 -345 631 -367 73 -7 80 -9
103 -40 13 -18 52 -54 87 -81 168 -132 351 -191 565 -182 l113 5 45 -32 c95
-68 184 -110 305 -142 86 -24 299 -23 380 1 92 27 113 30 138 14 82 -53 261
-98 387 -98 126 0 305 45 387 98 24 15 45 13 133 -12 90 -26 231 -31 335 -12
128 24 278 91 367 162 24 20 35 21 146 16 240 -10 453 70 620 234 l64 62 75 7
c252 23 492 164 626 368 25 37 45 57 57 57 11 0 48 9 82 21 197 66 342 174
450 337 l42 62 791 0 c754 0 792 1 832 19 51 24 94 84 100 143 3 33 -5 70 -37
158 -22 63 -60 171 -85 240 -59 168 -121 339 -134 373 -6 16 -11 39 -11 52 0
13 34 117 75 232 42 114 89 244 105 288 100 277 102 284 76 346 -19 45 -74 97
-117 109 -18 6 -92 10 -163 10 l-128 0 8 27 c5 16 9 92 9 169 l0 142 33 46
c146 203 197 504 121 723 -18 55 -19 57 -1 87 21 36 64 149 83 221 8 29 14
101 14 170 0 99 -5 137 -27 217 -15 54 -41 123 -57 155 -26 52 -28 62 -17 88
35 83 49 300 27 410 -18 94 -72 224 -127 306 l-55 82 7 93 c18 248 -88 516
-267 672 -34 29 -36 36 -38 94 -7 238 -155 495 -368 638 -50 34 -52 37 -73
120 -60 228 -224 421 -445 526 -74 36 -79 40 -102 92 -63 143 -177 278 -308
363 -82 53 -143 80 -244 108 -41 11 -75 22 -76 23 -1 2 -17 26 -35 53 -135
200 -377 343 -614 361 -84 7 -87 8 -121 45 -84 93 -212 174 -358 226 -65 24
-88 26 -239 29 l-166 2 -59 40 c-228 154 -460 190 -736 111 -34 -9 -50 -10
-55 -3 -10 16 -157 71 -232 88 -73 17 -190 26 -235 20z m240 -179 c33 -9 100
-36 149 -61 l89 -46 44 17 c81 31 157 44 259 45 173 0 305 -47 437 -156 l56
-46 104 13 c254 31 467 -53 628 -247 37 -46 59 -54 143 -54 79 0 176 -19 242
-46 116 -49 260 -176 323 -287 18 -31 40 -61 49 -66 9 -5 53 -16 97 -25 125
-26 232 -84 330 -180 82 -80 106 -120 178 -287 13 -31 25 -40 104 -72 141 -59
263 -160 330 -275 41 -69 80 -173 88 -233 9 -69 24 -92 79 -120 104 -52 216
-171 275 -293 45 -93 60 -153 68 -271 l6 -100 67 -65 c37 -36 80 -83 97 -105
45 -59 98 -171 117 -246 17 -68 20 -210 7 -290 -9 -57 -3 -75 54 -149 128
-167 176 -394 122 -585 -8 -27 -20 -71 -27 -96 -13 -46 -13 -47 33 -140 104
-209 104 -422 1 -628 -53 -104 -52 -80 -8 -226 58 -195 6 -429 -133 -606 -44
-57 -47 -64 -43 -107 7 -74 6 -295 -2 -314 -7 -17 -232 -18 -4537 -18 -3020 0
-4532 3 -4536 10 -15 25 -22 162 -13 261 l11 106 -44 54 c-61 75 -94 133 -126
225 -25 71 -27 92 -27 214 0 121 3 143 27 213 15 42 27 85 27 94 0 9 -13 37
-28 62 -71 116 -97 226 -90 382 6 129 25 198 84 306 l38 69 -28 84 c-73 226
-30 472 116 654 52 64 52 66 38 186 -9 77 1 205 22 270 37 120 94 208 199 312
l79 76 0 69 c0 244 123 461 332 585 38 22 71 44 74 49 3 5 10 37 15 71 23 143
79 249 193 364 67 67 96 88 171 123 50 24 101 48 115 55 26 12 33 25 97 161
30 64 54 97 123 165 119 120 194 157 412 204 19 4 36 21 54 54 25 42 58 89
104 145 28 35 128 107 197 142 88 44 177 65 283 65 l85 0 75 78 c41 43 92 91
113 106 61 45 183 96 264 112 91 17 142 18 248 2 l81 -11 56 45 c133 108 270
158 434 158 103 0 171 -11 256 -41 l56 -21 74 40 c130 69 232 94 368 87 47 -3
112 -12 145 -20z m4761 -6533 c15 -9 -2 -61 -195 -597 -34 -93 -64 -185 -67
-205 -3 -25 6 -64 31 -135 20 -55 56 -156 79 -225 24 -69 72 -201 105 -293 34
-92 59 -172 56 -177 -9 -14 -9882 -14 -9890 0 -4 6 51 183 121 393 79 236 127
397 127 422 0 25 -50 188 -129 423 -107 320 -126 385 -114 392 18 11 9859 13
9876 2z m-1746 -1812 c0 -6 -32 -42 -70 -80 -88 -87 -216 -154 -331 -174 -42
-7 -82 -16 -88 -20 -6 -4 -36 -45 -66 -91 -134 -203 -337 -315 -570 -315 l-73
0 -94 -93 c-171 -171 -329 -227 -581 -205 l-108 10 -67 -52 c-189 -146 -419
-187 -646 -115 l-88 29 -77 -41 c-110 -60 -203 -83 -331 -83 -130 0 -197 16
-318 76 l-93 47 -92 -29 c-82 -26 -105 -29 -222 -28 -118 0 -138 3 -215 30
-85 30 -162 75 -230 134 -38 33 -48 34 -174 21 -147 -16 -281 12 -409 86 -64
37 -150 110 -192 164 -31 39 -57 49 -132 49 -98 0 -197 24 -288 69 -125 62
-217 149 -286 268 -36 62 -62 83 -104 83 -68 0 -192 48 -285 111 -57 38 -150
130 -150 149 0 7 983 10 3190 10 2218 0 3190 -3 3190 -10z"/>
<path d="M5555 9386 c-16 -12 -18 -19 -9 -32 21 -36 104 -36 104 -1 -1 36 -62
58 -95 33z"/>
<path d="M4272 9319 c-13 -5 -28 -6 -34 -3 -6 4 -8 -4 -6 -17 2 -14 10 -24 21
-25 12 -1 13 -1 2 3 -24 7 -18 20 16 32 45 16 60 12 24 -5 l-30 -15 30 6 c36
8 39 10 30 24 -7 13 -22 13 -53 0z"/>
<path d="M5993 9324 c-7 -3 -13 -16 -13 -29 0 -17 8 -26 31 -34 41 -14 45 -14
63 5 18 17 19 24 8 41 -8 13 -71 25 -89 17z"/>
<path d="M6412 9212 c-23 -16 -9 -46 31 -65 30 -15 41 -16 52 -7 17 14 19 38
7 58 -11 16 -73 26 -90 14z"/>
<path d="M5158 9113 c7 -3 16 -2 19 1 4 3 -2 6 -13 5 -11 0 -14 -3 -6 -6z"/>
<path d="M3413 9084 c-25 -11 -33 -20 -33 -39 0 -29 19 -40 54 -31 29 7 58 34
53 49 -8 26 -41 35 -74 21z"/>
<path d="M5128 9093 c7 -3 16 -2 19 1 4 3 -2 6 -13 5 -11 0 -14 -3 -6 -6z"/>
<path d="M5189 9091 c8 -5 10 -14 6 -22 -6 -11 -5 -11 5 -2 14 12 6 33 -13 33
-8 0 -7 -3 2 -9z"/>
<path d="M5536 9081 c-24 -26 -2 -51 45 -51 43 0 60 19 40 44 -18 21 -69 25
-85 7z"/>
<path d="M5130 9070 c-9 -6 -10 -10 -3 -10 6 0 15 5 18 10 8 12 4 12 -15 0z"/>
<path d="M4310 9025 c-13 -16 -7 -45 10 -45 5 0 10 7 10 16 0 8 -4 12 -10 9
-5 -3 -10 -2 -10 4 0 5 6 11 13 14 6 2 9 7 6 11 -3 4 -12 0 -19 -9z"/>
<path d="M4380 9016 c0 -9 -4 -16 -10 -16 -5 0 -10 5 -10 10 0 6 -5 10 -12 10
-8 0 -7 -5 3 -15 9 -9 23 -13 32 -9 19 7 22 20 7 29 -5 3 -10 -1 -10 -9z"/>
<path d="M5941 9016 c-18 -21 -2 -45 34 -52 40 -7 55 0 55 26 0 35 -66 54 -89
26z"/>
<path d="M5972 8932 c-14 -14 -21 -41 -26 -103 -8 -103 -15 -131 -30 -126 -32
12 -63 -37 -31 -49 8 -4 15 -13 15 -21 0 -19 -57 -76 -103 -102 -54 -30 -206
-70 -327 -87 -124 -16 -284 -19 -275 -4 8 13 -42 57 -82 70 -44 15 -94 -9
-116 -55 -16 -33 -20 -35 -69 -36 -29 -1 -57 -1 -61 0 -48 8 -311 -64 -394
-108 -72 -39 -159 -109 -157 -127 1 -8 -2 -12 -6 -9 -10 6 -62 -70 -90 -130
-26 -58 -37 -177 -22 -242 l9 -41 -41 -6 c-86 -13 -233 -73 -293 -119 -76 -59
-133 -112 -133 -124 0 -6 -9 -18 -19 -27 -25 -23 -79 -135 -103 -216 -15 -49
-20 -95 -19 -182 0 -99 -3 -118 -16 -118 -31 0 -182 -84 -226 -125 -87 -84
-146 -181 -166 -274 -20 -93 -12 -312 14 -406 4 -16 -20 -46 -107 -135 -164
-166 -256 -310 -311 -485 -28 -89 -52 -266 -44 -324 4 -37 62 -135 131 -226
37 -48 240 -300 260 -322 9 -10 36 6 121 70 162 121 229 167 245 167 8 -1 53
-56 100 -122 90 -128 252 -337 274 -352 14 -10 106 51 298 196 65 48 124 88
132 88 12 0 57 -46 146 -150 11 -14 75 -80 142 -148 106 -108 123 -121 137
-109 9 7 57 48 107 90 50 41 126 109 169 149 42 40 84 77 92 81 18 11 23 7
169 -124 66 -59 148 -130 184 -158 l65 -52 105 108 c124 126 234 247 263 286
12 15 29 27 38 27 10 0 64 -35 121 -78 138 -104 294 -212 306 -212 14 0 252
302 341 433 17 26 40 47 49 47 9 0 89 -54 177 -120 88 -66 165 -120 172 -120
15 0 250 288 333 408 l64 92 -1 103 c-4 285 -117 541 -345 776 -40 41 -89 86
-109 100 l-36 26 23 70 c19 55 23 93 24 178 0 116 -15 179 -67 281 -52 99
-195 219 -306 255 l-32 11 3 114 c4 123 -6 176 -56 291 -76 176 -279 339 -460
370 -23 4 -42 8 -42 11 0 8 45 90 55 101 34 34 108 414 85 437 -5 5 -10 26
-10 45 0 77 -41 267 -84 391 -60 174 -113 243 -154 202z m81 -194 c91 -256
117 -541 66 -732 -34 -129 -155 -305 -270 -392 -63 -48 -227 -144 -246 -144
-8 0 -31 -9 -53 -20 -21 -11 -83 -32 -137 -46 -88 -24 -117 -27 -278 -28 -202
-1 -244 3 -365 38 -179 51 -323 126 -406 213 -120 125 -138 320 -43 459 91
133 252 217 478 248 145 21 211 21 211 1 0 -14 61 -37 83 -30 7 2 24 6 38 9
15 3 29 15 32 26 5 18 13 20 109 20 100 1 352 30 393 46 19 7 19 7 3 -12 -28
-32 -32 -77 -13 -127 17 -46 33 -57 87 -57 42 0 58 10 78 51 27 53 26 100 -5
133 -13 14 -31 26 -40 26 -28 0 -15 15 38 43 118 62 183 157 202 300 3 26 8
47 9 47 2 0 15 -33 29 -72z m-1808 -1074 c9 -14 17 -34 18 -44 1 -10 4 -18 7
-17 3 1 28 -21 56 -48 68 -67 85 -79 189 -130 190 -92 327 -125 555 -132 178
-5 245 1 406 42 74 19 358 161 413 207 53 44 49 40 97 96 32 37 41 42 78 42
139 0 332 -124 425 -272 99 -158 108 -404 19 -570 -111 -209 -328 -328 -718
-392 -427 -70 -889 -72 -1270 -5 -371 66 -513 115 -645 223 -69 57 -90 81
-132 155 -92 161 -99 376 -17 546 80 169 258 295 449 318 17 2 35 5 41 6 7 0
19 -11 29 -25z m-615 -776 c0 -7 7 -26 15 -42 9 -16 13 -31 10 -34 -2 -3 4
-17 15 -32 11 -16 20 -33 20 -39 0 -6 5 -11 10 -11 6 0 10 -5 10 -11 0 -17
131 -142 173 -164 20 -11 37 -23 37 -27 0 -5 5 -8 11 -8 5 0 35 -11 65 -25 30
-14 59 -25 64 -25 6 0 18 -4 28 -9 25 -14 107 -37 192 -55 208 -42 283 -56
365 -65 50 -6 115 -14 145 -18 86 -10 594 -7 705 5 175 19 277 33 375 54 52
11 113 24 135 28 93 17 333 118 355 148 3 5 21 18 41 30 38 23 111 103 145
159 12 19 24 31 26 26 3 -4 3 -2 1 6 -4 17 36 121 47 121 33 0 175 -83 220
-129 35 -36 85 -117 105 -171 10 -26 19 -91 22 -152 7 -130 -14 -210 -85 -333
-72 -124 -163 -209 -299 -277 -61 -31 -108 -60 -105 -64 4 -4 2 -5 -4 -1 -5 3
-52 -10 -104 -29 -145 -55 -375 -110 -600 -143 -588 -87 -1223 -50 -1775 103
-312 87 -586 250 -683 407 -48 78 -62 143 -62 284 0 106 4 144 21 195 33 102
85 172 176 236 86 62 183 94 183 62z"/>
<path d="M4569 8119 c-22 -23 -29 -41 -29 -69 0 -22 5 -42 10 -45 6 -3 10 -15
10 -25 0 -31 36 -49 89 -43 44 5 77 20 67 31 -3 2 1 14 9 26 8 11 15 38 15 59
0 89 -110 132 -171 66z"/>
<path d="M5140 7943 c-53 -19 -81 -85 -59 -138 7 -17 13 -37 13 -45 1 -20 57
-34 100 -26 55 11 91 80 74 144 -14 51 -78 83 -128 65z"/>
<path d="M3913 7498 c-38 -10 -73 -51 -73 -87 0 -36 24 -101 41 -112 20 -13
91 -10 110 4 24 18 49 72 49 106 0 35 -40 87 -72 93 -13 2 -37 1 -55 -4z"/>
<path d="M6075 7356 c-36 -36 -40 -69 -18 -129 19 -48 23 -52 59 -57 62 -8 90
7 114 63 18 41 19 54 10 83 -15 45 -45 64 -98 64 -32 0 -49 -6 -67 -24z"/>
<path d="M5630 7269 c0 -5 5 -7 10 -4 6 3 10 8 10 11 0 2 -4 4 -10 4 -5 0 -10
-5 -10 -11z"/>
<path d="M4524 7156 c-59 -26 -77 -75 -51 -146 21 -60 25 -63 85 -58 62 5 87
27 98 87 16 82 -59 148 -132 117z"/>
<path d="M5329 7091 c-44 -45 -37 -130 15 -173 61 -51 156 16 156 109 0 51
-45 93 -100 93 -33 0 -48 -6 -71 -29z"/>
<path d="M3977 7049 c-22 -13 -47 -62 -47 -91 1 -40 33 -91 63 -101 15 -5 44
-6 63 -3 27 6 38 15 54 46 29 56 26 96 -9 131 -23 22 -39 29 -68 29 -21 0 -46
-5 -56 -11z"/>
<path d="M5885 6926 c-53 -23 -70 -63 -52 -124 6 -20 10 -43 8 -50 -2 -15 39
-32 79 -32 41 0 80 20 80 41 0 10 5 21 10 24 14 8 13 68 -1 99 -11 22 -63 57
-86 56 -4 -1 -22 -7 -38 -14z"/>
<path d="M4892 6785 c-36 -30 -47 -71 -31 -111 12 -28 14 -37 17 -60 3 -16 65
-24 105 -13 24 6 38 19 50 44 32 66 19 123 -33 150 -42 22 -74 19 -108 -10z"/>
<path d="M6578 6723 c6 -2 18 -2 25 0 6 3 1 5 -13 5 -14 0 -19 -2 -12 -5z"/>
<path d="M6549 6652 c-40 -42 -47 -77 -26 -142 10 -34 18 -42 47 -50 75 -21
109 -5 135 65 21 53 10 93 -35 125 -35 25 -99 26 -121 2z"/>
<path d="M3389 6591 c-32 -33 -36 -64 -16 -121 18 -50 23 -57 55 -63 50 -10
85 6 109 49 32 55 30 99 -6 135 -23 23 -38 29 -71 29 -33 0 -48 -6 -71 -29z"/>
<path d="M4055 6366 c-49 -18 -71 -39 -84 -77 -10 -31 -9 -44 7 -85 16 -40 25
-50 53 -57 34 -9 110 6 107 21 0 4 6 24 15 44 10 21 17 48 17 62 0 28 -50 86
-75 86 -9 0 -13 5 -10 10 3 6 5 9 3 9 -2 -1 -17 -6 -33 -13z"/>
<path d="M6159 6311 c7 -5 3 -15 -14 -31 -30 -28 -40 -75 -25 -115 6 -17 11
-32 11 -35 0 -3 8 -13 16 -22 11 -12 31 -18 62 -18 54 0 60 4 84 48 34 66 16
141 -42 164 -29 12 -109 19 -92 9z"/>
<path d="M4191 6284 c0 -11 3 -14 6 -6 3 7 2 16 -1 19 -3 4 -6 -2 -5 -13z"/>
<path d="M6608 6268 c-51 -29 -62 -82 -33 -151 12 -29 22 -37 49 -43 61 -11
93 3 117 51 52 103 -37 199 -133 143z"/>
<path d="M4826 6229 c-62 -18 -81 -68 -56 -151 15 -49 39 -68 85 -68 42 0 70
20 89 63 41 96 -25 184 -118 156z"/>
<path d="M5395 6230 c-3 -5 -1 -10 4 -10 6 0 11 5 11 10 0 6 -2 10 -4 10 -3 0
-8 -4 -11 -10z"/>
<path d="M5415 6210 c-23 -24 -29 -39 -27 -63 5 -46 24 -100 42 -114 19 -16
69 -16 99 0 51 26 81 138 46 167 -9 7 -14 18 -12 24 3 8 -17 13 -57 14 -57 3
-63 1 -91 -28z"/>
<path d="M3586 6199 c-44 -34 -50 -65 -29 -131 19 -60 29 -68 88 -68 40 1 61
18 84 71 24 55 18 91 -21 124 -37 31 -86 33 -122 4z"/>
<path d="M5850 5992 c-19 -9 -41 -28 -48 -42 -13 -26 -8 -86 9 -106 5 -7 8
-18 7 -25 -4 -19 79 -34 113 -21 48 19 76 112 48 164 -9 17 -64 48 -86 48 -4
0 -24 -8 -43 -18z"/>
<path d="M4309 5951 c-32 -33 -37 -70 -15 -131 34 -95 161 -68 182 39 20 97
-98 161 -167 92z"/>
<path d="M5044 5884 c-17 -8 -36 -26 -43 -40 -14 -31 -14 -91 -1 -99 6 -3 10
-15 10 -25 0 -24 29 -40 74 -40 52 0 65 8 88 58 16 36 19 54 12 81 -16 60 -85
93 -140 65z"/>
<path d="M6341 8916 c-18 -21 -7 -44 24 -56 38 -14 53 -12 64 9 14 25 -5 49
-45 57 -21 4 -34 1 -43 -10z"/>
<path d="M3012 8890 c-36 -22 -42 -54 -14 -69 25 -13 82 21 82 49 0 32 -32 42
-68 20z"/>
<path d="M7230 8855 c-6 -8 -10 -19 -8 -25 2 -6 11 -2 20 9 10 11 13 23 9 26
-5 2 -14 -2 -21 -10z"/>
<path d="M7300 8822 c0 -23 -19 -29 -37 -11 -7 7 -13 7 -17 1 -3 -5 6 -13 21
-17 33 -8 64 18 45 37 -9 9 -12 7 -12 -10z"/>
<path d="M3538 8803 c-21 -5 -35 -50 -20 -65 12 -12 49 -5 76 15 13 9 16 20
12 35 -7 22 -27 26 -68 15z"/>
<path d="M5500 8736 c0 -36 56 -51 80 -21 19 22 -5 45 -46 45 -29 0 -34 -3
-34 -24z"/>
<path d="M4388 8703 c-19 -5 -25 -33 -8 -33 6 0 10 5 10 10 0 6 10 15 23 20
23 9 6 11 -25 3z"/>
<path d="M4428 8680 c-18 -21 -13 -26 11 -11 7 5 12 14 10 20 -3 7 -11 3 -21
-9z"/>
<path d="M2638 8663 c-31 -20 -40 -36 -32 -58 8 -21 41 -19 75 6 33 23 35 31
13 53 -19 20 -22 20 -56 -1z"/>
<path d="M3158 8616 c-42 -31 -10 -72 40 -51 24 11 32 20 32 40 0 21 -5 25
-27 25 -16 0 -36 -7 -45 -14z"/>
<path d="M6237 8590 c-7 -25 31 -53 65 -48 35 5 37 45 3 58 -40 15 -62 12 -68
-10z"/>
<path d="M7107 8593 c-11 -10 -8 -41 4 -49 8 -4 9 1 4 16 -7 21 -5 22 21 16
16 -4 31 -9 32 -11 8 -7 -10 -25 -19 -20 -5 4 -9 1 -9 -5 0 -18 34 -7 38 12 2
10 -9 22 -29 32 -37 19 -34 18 -42 9z"/>
<path d="M3658 8489 c-22 -12 -23 -48 -3 -55 9 -4 29 -1 46 6 22 9 29 18 27
34 -3 24 -42 32 -70 15z"/>
<path d="M2820 8414 c-26 -8 -43 -43 -29 -60 16 -19 39 -17 67 6 40 34 15 69
-38 54z"/>
<path d="M4476 8403 c-11 -11 -7 -25 6 -17 8 5 9 2 5 -9 -3 -10 -2 -17 3 -17
12 0 13 37 1 44 -4 3 -11 3 -15 -1z"/>
<path d="M2327 8378 c-8 -29 -4 -32 11 -8 6 10 8 21 3 24 -5 3 -11 -4 -14 -16z"/>
<path d="M4430 8381 c0 -12 29 -35 36 -28 4 3 -1 13 -9 22 -17 17 -27 19 -27
6z"/>
<path d="M2280 8340 c0 -11 4 -20 9 -20 5 0 7 9 4 20 -3 11 -7 20 -9 20 -2 0
-4 -9 -4 -20z"/>
<path d="M7968 8353 c7 -3 16 -2 19 1 4 3 -2 6 -13 5 -11 0 -14 -3 -6 -6z"/>
<path d="M3322 8324 c-24 -16 -30 -50 -9 -57 16 -6 65 22 72 42 6 14 -10 31
-30 31 -6 0 -21 -7 -33 -16z"/>
<path d="M7950 8332 c0 -11 48 -57 54 -51 2 2 -9 17 -25 32 -16 16 -29 24 -29
19z"/>
<path d="M8021 8304 c0 -11 3 -14 6 -6 3 7 2 16 -1 19 -3 4 -6 -2 -5 -13z"/>
<path d="M6953 8303 c-15 -5 -18 -43 -3 -43 5 0 7 7 4 15 -7 18 17 20 34 3 7
-7 12 -8 12 -2 0 13 -33 32 -47 27z"/>
<path d="M7010 8261 c0 -8 -7 -11 -15 -7 -8 3 -15 1 -15 -4 0 -6 6 -10 14 -10
17 0 31 18 22 27 -3 4 -6 1 -6 -6z"/>
<path d="M3783 8198 c-26 -13 -30 -43 -7 -52 23 -9 77 22 70 40 -3 9 -6 18 -6
20 0 8 -35 3 -57 -8z"/>
<path d="M2510 8165 c0 -8 2 -15 4 -15 2 0 6 7 10 15 3 8 1 15 -4 15 -6 0 -10
-7 -10 -15z"/>
<path d="M2466 8135 c-9 -26 -7 -32 5 -12 6 10 9 21 6 23 -2 3 -7 -2 -11 -11z"/>
<path d="M3009 8135 c-31 -17 -41 -36 -29 -56 7 -10 16 -11 36 -4 38 14 53 40
34 59 -13 13 -19 13 -41 1z"/>
<path d="M2515 8130 c-3 -5 -1 -10 4 -10 6 0 11 5 11 10 0 6 -2 10 -4 10 -3 0
-8 -4 -11 -10z"/>
<path d="M7780 8091 c0 -6 4 -13 10 -16 6 -3 7 1 4 9 -7 18 -14 21 -14 7z"/>
<path d="M7835 8089 c-5 -8 -4 -10 3 -5 7 4 12 2 12 -4 0 -6 -10 -15 -22 -20
-16 -6 -18 -9 -7 -9 23 -1 45 27 32 40 -8 8 -13 7 -18 -2z"/>
<path d="M3467 8042 c-21 -23 -22 -38 -1 -46 23 -9 66 21 62 42 -5 24 -41 26
-61 4z"/>
<path d="M8267 8053 c-23 -23 21 -83 60 -83 33 0 40 37 12 66 -21 23 -58 32
-72 17z"/>
<path d="M6795 8019 c-4 -6 -4 -13 -1 -16 3 -4 6 -1 6 5 0 7 4 12 9 12 5 0 7
-8 4 -19 -3 -11 2 -21 12 -25 22 -8 35 1 34 22 0 11 -3 12 -6 5 -2 -7 -9 -13
-15 -13 -6 0 -8 6 -5 14 3 8 -1 17 -9 20 -21 8 -22 8 -29 -5z"/>
<path d="M3895 7916 c-28 -20 -13 -50 22 -41 31 7 44 22 36 42 -7 17 -34 17
-58 -1z"/>
<path d="M2697 7892 c-10 -10 -17 -22 -17 -27 0 -5 9 1 20 13 23 25 36 28 43
10 3 -8 6 -6 6 5 1 23 -31 22 -52 -1z"/>
<path d="M3169 7861 c-23 -19 -23 -21 -7 -37 16 -16 18 -16 43 0 28 18 30 49
4 54 -9 1 -27 -6 -40 -17z"/>
<path d="M7573 7855 c-3 -9 -3 -19 1 -22 3 -4 6 1 6 10 0 8 6 18 13 20 9 4 9
6 -1 6 -7 1 -15 -6 -19 -14z"/>
<path d="M8075 7839 c-20 -31 28 -86 66 -74 26 8 24 37 -4 63 -25 24 -52 28
-62 11z"/>
<path d="M7615 7820 c-3 -5 -1 -10 4 -10 6 0 11 5 11 10 0 6 -2 10 -4 10 -3 0
-8 -4 -11 -10z"/>
<path d="M3605 7776 c-16 -12 -17 -16 -6 -30 17 -21 23 -20 49 5 37 34 -1 56
-43 25z"/>
<path d="M1678 7761 c4 -10 7 -11 10 -3 5 17 22 15 22 -3 0 -8 -4 -15 -10 -15
-5 0 -10 -8 -10 -17 0 -15 4 -14 19 6 23 30 17 51 -14 49 -16 -2 -21 -7 -17
-17z"/>
<path d="M6665 7730 c18 -20 35 -26 35 -12 0 4 -12 12 -26 19 -26 12 -26 12
-9 -7z"/>
<path d="M1640 7725 c0 -8 2 -15 4 -15 2 0 6 7 10 15 3 8 1 15 -4 15 -6 0 -10
-7 -10 -15z"/>
<path d="M8556 7714 c-10 -25 -7 -32 19 -59 30 -29 38 -31 59 -9 22 21 20 29
-9 59 -29 28 -60 33 -69 9z"/>
<path d="M2904 7658 c-5 -7 -2 -9 9 -5 9 3 18 1 21 -6 2 -7 5 -4 5 6 1 19 -24
23 -35 5z"/>
<path d="M2908 7623 c7 -3 16 -2 19 1 4 3 -2 6 -13 5 -11 0 -14 -3 -6 -6z"/>
<path d="M3339 7611 c-19 -16 -21 -22 -12 -32 18 -18 63 4 63 31 0 25 -21 26
-51 1z"/>
<path d="M7833 7604 c-8 -20 29 -69 52 -69 10 0 23 8 29 17 8 14 5 22 -14 43
-27 28 -58 33 -67 9z"/>
<path d="M1910 7568 c-23 -25 -26 -54 -6 -61 18 -7 56 28 56 52 0 28 -27 33
-50 9z m40 -9 c0 -6 -7 -8 -16 -5 -12 4 -14 1 -9 -14 4 -11 2 -20 -4 -20 -17
0 -23 20 -11 35 15 18 40 20 40 4z"/>
<path d="M8350 7530 c-19 -12 -4 -57 26 -77 19 -12 24 -12 38 2 21 21 20 27
-5 59 -22 28 -35 31 -59 16z"/>
<path d="M3121 7414 c0 -11 3 -14 6 -6 3 7 2 16 -1 19 -3 4 -6 -2 -5 -13z"/>
<path d="M7180 7389 c0 -5 4 -8 9 -4 5 3 17 -5 25 -17 9 -12 16 -17 16 -10 0
16 -24 42 -39 42 -6 0 -11 -5 -11 -11z"/>
<path d="M7613 7384 c-3 -9 4 -25 18 -40 22 -22 27 -23 44 -10 20 14 20 15 -4
40 -28 30 -49 33 -58 10z"/>
<path d="M2183 7360 c-1 -11 0 -20 2 -20 2 0 9 9 15 20 8 15 8 20 -3 20 -7 0
-13 -9 -14 -20z"/>
<path d="M8823 7347 c-28 -12 -29 -31 -2 -68 36 -51 93 -27 70 29 -16 38 -40
52 -68 39z"/>
<path d="M2151 7324 c0 -11 3 -14 6 -6 3 7 2 16 -1 19 -3 4 -6 -2 -5 -13z"/>
<path d="M2186 7324 c-17 -12 -17 -14 -4 -14 9 0 20 5 23 11 11 17 2 18 -19 3z"/>
<path d="M8093 7323 c-19 -7 -16 -31 6 -54 38 -41 81 -2 44 40 -17 21 -27 24
-50 14z"/>
<path d="M7403 7174 c-7 -19 30 -59 46 -50 15 10 14 35 -3 52 -19 18 -35 18
-43 -2z"/>
<path d="M8593 7183 c-18 -7 -16 -44 3 -71 16 -23 48 -29 59 -11 9 14 -2 55
-21 73 -16 17 -21 18 -41 9z"/>
<path d="M2428 7163 c17 -7 15 -30 -4 -37 -23 -9 -32 3 -14 15 13 9 13 10 1 7
-22 -6 -25 -27 -5 -35 11 -4 23 1 36 16 20 25 16 41 -10 40 -11 0 -12 -3 -4
-6z"/>
<path d="M7843 7124 c-12 -32 36 -79 59 -56 10 10 10 18 -2 40 -19 32 -47 40
-57 16z"/>
<path d="M1172 7025 c-17 -37 -15 -63 6 -73 24 -13 40 -5 58 29 21 41 10 69
-25 69 -20 0 -31 -7 -39 -25z"/>
<path d="M8313 7003 c-30 -11 2 -83 36 -83 28 0 35 30 13 59 -20 27 -30 32
-49 24z"/>
<path d="M2647 6974 c-3 -3 -3 -13 0 -22 4 -10 2 -13 -5 -8 -7 4 -12 3 -12 -3
0 -5 5 -13 11 -17 13 -8 51 35 43 48 -6 9 -28 11 -37 2z"/>
<path d="M7611 6941 c-11 -7 -10 -13 4 -35 10 -14 24 -26 31 -26 23 0 28 29 9
50 -20 22 -24 23 -44 11z"/>
<path d="M1445 6871 c-21 -42 0 -80 38 -66 17 7 40 62 33 80 -10 27 -54 18
-71 -14z"/>
<path d="M8043 6824 c-9 -24 14 -64 37 -64 28 0 35 25 16 55 -19 28 -44 33
-53 9z"/>
<path d="M1746 6725 c-21 -32 -20 -52 3 -65 16 -8 23 -5 40 16 24 30 26 45 9
62 -18 18 -34 14 -52 -13z"/>
<path d="M7797 6673 c-21 -20 18 -83 42 -68 16 9 13 41 -5 59 -17 17 -27 20
-37 9z"/>
<path d="M989 6610 c-11 -35 -10 -43 3 -56 32 -32 79 26 63 77 -4 12 -15 19
-30 19 -20 0 -27 -8 -36 -40z"/>
<path d="M2024 6575 c-9 -14 -14 -32 -10 -40 9 -24 45 -18 58 9 23 51 -18 77
-48 31z"/>
<path d="M9220 6532 c6 -13 14 -21 18 -18 3 4 -2 14 -12 24 -18 16 -18 16 -6
-6z"/>
<path d="M1284 6506 c-22 -35 -15 -71 14 -71 33 0 58 57 36 80 -21 21 -31 19
-50 -9z"/>
<path d="M9220 6490 c0 -4 7 -13 15 -20 11 -10 18 -9 30 4 19 19 5 22 -14 4
-11 -11 -13 -10 -8 3 3 9 0 16 -9 16 -8 0 -14 -4 -14 -7z"/>
<path d="M2291 6434 c-10 -22 -9 -30 2 -41 12 -12 17 -12 31 3 20 20 17 58 -5
62 -9 2 -21 -9 -28 -24z"/>
<path d="M8978 6430 c12 -5 22 -15 22 -21 0 -7 2 -10 5 -7 12 11 -9 38 -29 37
-21 0 -21 0 2 -9z"/>
<path d="M8954 6409 c-9 -16 31 -53 50 -46 9 4 16 12 16 18 0 8 -4 8 -15 -1
-19 -15 -40 -3 -25 15 8 9 7 14 -4 18 -9 4 -18 1 -22 -4z"/>
<path d="M1596 6385 c-21 -32 -20 -61 1 -69 36 -14 68 60 34 81 -16 10 -22 9
-35 -12z"/>
<path d="M8670 6274 c0 -8 0 -17 -1 -21 0 -4 5 -9 13 -11 9 -2 8 0 -2 7 -12 9
-11 11 8 11 27 0 29 16 2 23 -13 3 -20 0 -20 -9z"/>
<path d="M1878 6255 c-10 -21 -9 -29 5 -43 15 -14 19 -15 32 -2 8 8 16 26 17
40 4 37 -37 41 -54 5z"/>
<path d="M852 6205 c-7 -14 -12 -35 -12 -45 0 -22 30 -42 47 -32 18 11 34 62
28 83 -9 29 -49 24 -63 -6z"/>
<path d="M8360 6188 c0 -12 1 -19 3 -17 1 2 9 12 16 22 12 14 11 17 -3 17 -10
0 -16 -8 -16 -22z"/>
<path d="M8399 6171 c11 -7 10 -11 -5 -20 -11 -6 -14 -11 -8 -11 6 0 17 6 23
13 11 14 5 27 -13 27 -6 0 -5 -4 3 -9z"/>
<path d="M2160 6145 c-15 -39 5 -63 32 -38 23 20 20 56 -4 61 -12 2 -21 -6
-28 -23z"/>
<path d="M1150 6120 c-18 -34 -9 -74 17 -78 28 -4 49 34 39 72 -8 32 -41 35
-56 6z"/>
<path d="M8076 6079 c3 -5 12 -9 20 -9 17 0 19 -16 2 -23 -8 -3 -6 -6 5 -6 9
-1 17 4 17 9 0 6 0 13 0 18 0 4 -12 10 -25 14 -14 3 -23 2 -19 -3z"/>
<path d="M1470 6021 c-5 -11 -10 -28 -10 -39 0 -21 25 -36 42 -26 14 9 28 52
22 69 -9 21 -41 19 -54 -4z"/>
<path d="M1770 5931 c-15 -29 -12 -48 7 -55 21 -8 43 18 43 51 0 29 -35 32
-50 4z"/>
<path d="M2060 5844 c-11 -29 -6 -44 15 -44 18 0 38 37 31 56 -9 23 -36 16
-46 -12z"/>
<path d="M796 5775 c-9 -26 -7 -32 5 -12 6 10 9 21 6 23 -2 3 -7 -2 -11 -11z"/>
<path d="M755 5720 c3 -5 8 -10 11 -10 2 0 4 5 4 10 0 6 -5 10 -11 10 -5 0 -7
-4 -4 -10z"/>
<path d="M1075 5720 c3 -5 8 -10 11 -10 2 0 4 5 4 10 0 6 -5 10 -11 10 -5 0
-7 -4 -4 -10z"/>
<path d="M1080 5696 c0 -2 7 -7 16 -10 8 -3 12 -2 9 4 -6 10 -25 14 -25 6z"/>
<path d="M1394 5655 c-4 -9 -4 -19 0 -22 3 -4 6 1 6 10 0 10 5 17 11 17 15 0
7 -53 -10 -58 -8 -3 -11 0 -7 7 4 6 2 11 -4 11 -7 0 -10 -6 -7 -12 2 -7 12
-13 23 -13 15 0 19 7 19 34 0 36 -21 54 -31 26z"/>
<path d="M9491 5644 c0 -11 3 -14 6 -6 3 7 2 16 -1 19 -3 4 -6 -2 -5 -13z"/>
<path d="M9193 5639 c21 -12 23 -59 3 -59 -8 0 -17 12 -19 28 l-4 27 -2 -26
c-1 -29 22 -55 39 -44 25 15 5 86 -24 85 -6 0 -3 -5 7 -11z"/>
<path d="M8845 5579 c-11 -17 1 -21 15 -4 8 9 8 15 2 15 -6 0 -14 -5 -17 -11z"/>
<path d="M8881 5564 c0 -11 3 -14 6 -6 3 7 2 16 -1 19 -3 4 -6 -2 -5 -13z"/>
<path d="M1994 5538 c-5 -7 -3 -8 6 -3 7 4 16 2 21 -6 7 -11 9 -10 9 4 0 19
-25 23 -36 5z"/>
<path d="M8550 5525 c0 -8 2 -15 4 -15 2 0 6 7 10 15 3 8 1 15 -4 15 -6 0 -10
-7 -10 -15z"/>
<path d="M8531 5514 c0 -11 3 -14 6 -6 3 7 2 16 -1 19 -3 4 -6 -2 -5 -13z"/>
<path d="M8860 5516 c7 -7 13 -7 20 0 6 6 3 10 -10 10 -13 0 -16 -4 -10 -10z"/>
<path d="M8570 5499 c0 -15 -5 -19 -16 -15 -8 3 -12 2 -9 -4 12 -20 35 -10 35
15 0 14 -2 25 -5 25 -3 0 -5 -9 -5 -21z"/>
<path d="M1997 5499 c7 -7 15 -10 18 -7 3 3 -2 9 -12 12 -14 6 -15 5 -6 -5z"/>
<path d="M8265 5440 c-3 -5 -1 -10 4 -10 6 0 11 5 11 10 0 6 -2 10 -4 10 -3 0
-8 -4 -11 -10z"/>
<path d="M9495 5266 c-12 -8 -16 -23 -13 -51 3 -35 6 -40 30 -43 22 -3 29 2
34 22 14 56 -16 98 -51 72z"/>
<path d="M9212 5228 c-23 -23 -4 -88 27 -88 25 0 39 47 25 84 -7 19 -35 21
-52 4z"/>
<path d="M8884 5206 c-3 -8 -4 -27 -2 -43 2 -22 8 -28 28 -28 21 0 26 5 28 34
3 33 -9 51 -36 51 -7 0 -15 -6 -18 -14z"/>
<path d="M8574 5186 c-11 -28 1 -61 22 -64 26 -4 37 19 24 53 -10 27 -37 33
-46 11z"/>
<path d="M8280 5165 c-10 -12 -10 -21 -2 -41 10 -21 15 -23 32 -14 23 12 23
11 10 44 -11 30 -22 33 -40 11z"/>
<path d="M9494 4986 c-3 -8 -4 -31 -2 -52 3 -34 6 -39 28 -39 32 0 49 42 32
80 -13 27 -49 34 -58 11z"/>
<path d="M8898 4976 c-22 -16 -23 -59 -3 -76 37 -31 74 36 39 70 -16 16 -22
17 -36 6z"/>
<path d="M9221 4976 c-7 -8 -11 -30 -9 -48 2 -26 8 -34 27 -36 27 -4 41 12 41
49 0 43 -35 64 -59 35z"/>
<path d="M8284 4966 c-10 -26 0 -51 21 -51 16 0 20 7 20 30 0 33 -30 49 -41
21z"/>
<path d="M8576 4972 c-7 -12 1 -53 13 -65 19 -19 42 1 39 35 -2 25 -8 34 -25
36 -11 2 -24 -1 -27 -6z"/>
<path d="M703 4913 c-22 -8 -14 -18 17 -19 24 -1 28 1 19 12 -12 15 -16 16
-36 7z"/>
<path d="M1651 4906 c-17 -20 -4 -58 17 -54 10 2 18 14 19 28 l3 25 -11 -25
c-8 -20 -12 -22 -19 -10 -5 9 -5 19 2 27 6 8 9 16 6 18 -3 3 -11 -1 -17 -9z"/>
<path d="M1950 4909 c0 -5 5 -7 10 -4 6 3 10 -4 10 -16 0 -18 -2 -19 -15 -9
-13 11 -14 10 -9 -4 3 -9 12 -16 19 -16 17 0 26 35 12 49 -14 14 -27 14 -27 0z"/>
<path d="M1005 4901 c-3 -7 0 -8 9 -5 11 4 16 0 16 -10 0 -9 5 -16 11 -16 6 0
9 8 7 17 -4 20 -33 29 -43 14z"/>
<path d="M1330 4876 c0 -42 18 -56 37 -30 20 27 12 58 -14 62 -20 3 -23 -1
-23 -32z m40 7 c0 -10 -4 -25 -10 -33 -8 -12 -10 -12 -16 3 -7 20 1 47 16 47
5 0 10 -8 10 -17z"/>
<path d="M692 4855 c0 -16 2 -22 5 -12 2 9 2 23 0 30 -3 6 -5 -1 -5 -18z"/>
<path d="M730 4855 c0 -8 -4 -15 -10 -15 -5 0 -10 -7 -10 -17 0 -14 2 -14 20
2 21 19 27 45 10 45 -5 0 -10 -7 -10 -15z"/>
<path d="M1005 4840 c3 -5 11 -10 16 -10 6 0 7 5 4 10 -3 6 -11 10 -16 10 -6
0 -7 -4 -4 -10z"/>
<path d="M8270 4655 c-18 -22 -8 -60 15 -60 15 0 21 8 23 31 3 35 -19 52 -38
29z"/>
<path d="M8561 4621 c-15 -27 -14 -46 4 -61 23 -19 47 6 43 44 -4 37 -32 47
-47 17z"/>
<path d="M8872 4598 c-27 -27 -2 -102 28 -83 20 12 31 55 20 76 -12 22 -30 25
-48 7z"/>
<path d="M9197 4573 c-4 -3 -7 -25 -7 -49 0 -33 4 -43 19 -47 12 -3 27 3 35
12 21 23 21 77 0 85 -20 8 -39 8 -47 -1z"/>
<path d="M9471 4546 c-7 -8 -11 -32 -9 -53 3 -33 7 -38 29 -41 21 -2 29 3 39
28 23 56 -24 108 -59 66z"/>
<path d="M2024 4286 c-3 -8 -4 -25 -2 -38 4 -32 42 -32 46 0 6 38 -32 70 -44
38z"/>
<path d="M1723 4214 c-8 -21 13 -64 32 -64 20 0 29 23 21 55 -7 28 -43 35 -53
9z"/>
<path d="M1416 4154 c-9 -23 4 -63 24 -74 27 -14 44 12 36 55 -6 28 -11 35
-30 35 -13 0 -27 -7 -30 -16z"/>
<path d="M1097 4093 c-12 -11 -8 -58 6 -77 19 -26 51 -17 55 16 6 48 -34 88
-61 61z"/>
<path d="M794 4024 c-14 -56 26 -103 61 -74 19 16 19 50 -1 78 -21 31 -52 29
-60 -4z"/>
<path d="M8140 4007 c0 -30 10 -40 27 -26 20 18 16 49 -7 49 -14 0 -20 -7 -20
-23z m30 4 c0 -6 -4 -13 -10 -16 -5 -3 -10 1 -10 9 0 9 5 16 10 16 6 0 10 -4
10 -9z"/>
<path d="M2100 3994 c0 -19 18 -54 28 -54 21 1 33 19 26 43 -4 20 -13 27 -30
27 -15 0 -24 -6 -24 -16z"/>
<path d="M8426 3934 c-11 -28 -6 -54 9 -54 20 0 40 49 25 64 -7 7 -10 0 -10
-22 0 -18 -5 -32 -11 -32 -7 0 -9 11 -5 30 6 32 2 40 -8 14z"/>
<path d="M1827 3923 c-11 -11 -8 -48 6 -67 20 -27 50 -10 42 23 -10 41 -32 61
-48 44z"/>
<path d="M8730 3843 c0 -15 2 -15 10 -3 15 24 24 2 11 -27 -11 -26 -10 -27 4
-8 19 24 16 49 -8 53 -11 2 -17 -3 -17 -15z"/>
<path d="M1527 3823 c-13 -12 -7 -61 9 -74 35 -29 63 30 32 69 -11 13 -31 16
-41 5z"/>
<path d="M8710 3800 c0 -5 5 -10 11 -10 5 0 7 5 4 10 -3 6 -8 10 -11 10 -2 0
-4 -4 -4 -10z"/>
<path d="M9050 3760 c0 -5 5 -10 10 -10 6 0 10 -10 10 -22 0 -18 2 -20 9 -9 6
9 5 21 -2 33 -13 20 -27 24 -27 8z"/>
<path d="M1211 3721 c-11 -7 -12 -17 -5 -42 12 -44 38 -59 61 -37 16 17 16 20
0 53 -17 36 -31 42 -56 26z"/>
<path d="M9020 3701 c0 -6 4 -13 10 -16 6 -3 7 1 4 9 -7 18 -14 21 -14 7z"/>
<path d="M9319 3695 c-3 -5 2 -25 11 -43 l16 -33 0 35 c0 20 -3 31 -7 24 -4
-7 -8 -4 -11 8 -2 10 -6 15 -9 9z"/>
<path d="M927 3648 c-33 -18 -10 -101 26 -96 31 5 42 31 28 66 -15 35 -30 44
-54 30z"/>
<path d="M9295 3640 c-7 -22 11 -53 26 -44 16 9 10 26 -7 20 -13 -5 -15 -1
-10 19 8 30 0 34 -9 5z"/>
<path d="M4055 3096 c-29 -32 -208 -395 -272 -549 -24 -60 -63 -168 -85 -241
-22 -72 -45 -132 -49 -134 -5 -2 -9 -9 -9 -16 0 -30 -113 -136 -145 -136 -23
0 12 92 74 194 77 125 121 213 121 241 0 58 -107 123 -158 96 -20 -10 -77
-156 -121 -306 -13 -43 -33 -85 -53 -108 l-33 -39 -180 -3 c-99 -1 -197 -6
-217 -10 -30 -6 -38 -5 -38 7 0 23 116 209 237 378 170 239 223 320 223 342 0
27 -17 57 -54 96 -53 57 -119 79 -144 50 -11 -14 -176 -342 -210 -418 -76
-170 -135 -334 -152 -422 l-12 -67 -55 -17 c-67 -21 -103 -48 -103 -78 0 -33
40 -52 71 -35 33 19 233 16 366 -5 177 -28 183 -26 260 49 64 62 82 68 83 28
0 -27 40 -53 80 -53 52 0 96 19 139 61 26 25 35 29 42 18 5 -8 9 -19 9 -25 0
-6 11 -21 25 -34 20 -19 36 -24 74 -23 55 1 78 11 131 59 l38 34 19 -37 c28
-54 79 -73 140 -51 27 10 43 12 40 5 -2 -6 -34 -20 -73 -32 -140 -44 -244
-118 -258 -186 -12 -60 53 -119 132 -119 76 0 196 90 282 212 41 58 58 73 124
107 98 50 165 107 222 187 51 71 68 136 40 147 -26 10 -46 -3 -68 -47 -20 -40
-174 -203 -183 -194 -2 2 11 35 30 73 49 102 108 232 134 298 20 50 22 61 11
87 -19 45 -67 82 -103 78 -29 -3 -33 -9 -97 -168 -36 -91 -79 -190 -95 -220
-42 -77 -114 -150 -148 -150 -23 0 -27 4 -27 29 0 32 63 162 149 305 52 86 53
90 42 127 -15 51 -68 92 -113 87 -31 -3 -36 -9 -75 -88 -22 -47 -56 -125 -74
-175 -63 -176 -143 -288 -199 -282 -60 5 -19 121 136 390 42 72 95 161 119
197 112 173 185 304 185 334 0 55 -67 141 -119 152 -14 3 -31 7 -36 9 -6 1
-15 -3 -20 -9z m10 -1286 c-9 -17 -35 -51 -59 -75 -45 -48 -83 -58 -106 -30
-24 29 39 89 129 121 51 19 53 18 36 -16z"/>
<path d="M5485 2950 c-214 -45 -406 -220 -422 -384 -6 -61 4 -70 74 -67 21 1
43 12 66 34 33 30 35 35 28 74 -26 140 156 292 351 293 61 0 88 -13 118 -57
22 -32 25 -49 28 -144 3 -90 0 -123 -22 -206 -58 -224 -165 -435 -270 -531
-40 -37 -71 -51 -147 -66 -29 -6 -43 -38 -26 -55 6 -6 36 -11 66 -11 111 0
263 99 386 252 64 80 146 216 173 288 44 115 65 194 69 266 10 146 -35 237
-145 291 -51 25 -68 28 -172 30 -63 1 -133 -2 -155 -7z"/>
<path d="M7413 2847 c-75 -46 -102 -66 -151 -114 -46 -44 -47 -58 -5 -74 45
-17 97 6 160 71 32 33 60 60 64 60 8 0 25 -42 34 -85 10 -44 23 -55 66 -55 53
0 69 31 43 81 -41 80 -106 149 -139 148 -11 0 -44 -15 -72 -32z"/>
<path d="M3661 2826 c-78 -44 -61 -170 27 -197 112 -33 190 110 101 185 -34
29 -88 34 -128 12z"/>
<path d="M5326 2698 c-97 -208 -191 -467 -220 -610 -21 -101 -20 -124 5 -141
32 -23 56 -10 76 42 24 64 108 209 228 391 137 209 145 223 145 255 0 64 -92
155 -157 155 -34 0 -35 -2 -77 -92z"/>
<path d="M6170 2543 c-144 -74 -270 -280 -270 -442 0 -69 23 -117 70 -149 31
-21 43 -23 103 -19 74 6 159 40 217 86 24 19 52 30 87 34 28 3 70 15 93 27 23
12 43 20 44 18 1 -2 13 -23 25 -48 25 -49 37 -61 95 -91 33 -18 52 -21 116
-17 91 5 145 29 229 99 59 49 59 49 65 24 10 -39 63 -92 111 -111 67 -25 182
-16 260 21 107 51 221 191 213 262 -2 22 -8 28 -27 28 -20 0 -32 -13 -61 -62
-20 -35 -49 -77 -66 -94 -41 -43 -133 -87 -198 -95 -50 -6 -57 -4 -81 20 -24
24 -26 32 -20 73 10 70 10 69 78 70 174 3 330 147 314 289 -3 32 -13 54 -31
73 -25 25 -32 26 -129 26 -88 0 -108 -3 -147 -24 -109 -57 -190 -155 -221
-269 -23 -79 -48 -120 -107 -173 -77 -68 -191 -106 -240 -80 -103 55 83 438
226 467 64 13 48 -41 -39 -131 -69 -72 -82 -110 -54 -169 25 -52 52 -48 109
15 62 69 106 162 113 236 5 56 4 62 -25 94 -29 33 -33 34 -114 37 -109 5 -173
-18 -254 -92 -67 -60 -104 -122 -129 -211 -22 -78 -50 -114 -104 -130 l-24 -7
22 31 c66 92 92 231 58 306 -44 98 -193 136 -307 78z m112 -70 c36 -32 19
-158 -38 -275 -20 -43 -26 -45 -50 -21 -29 29 -47 85 -46 145 0 118 76 204
134 151z m1196 -32 c7 -92 -104 -191 -214 -191 -22 0 -34 5 -34 14 0 8 24 47
53 87 62 87 128 141 166 137 23 -3 26 -8 29 -47z m-1408 -141 c0 -55 33 -137
71 -176 32 -33 32 -34 13 -55 -47 -52 -131 -66 -158 -27 -19 26 -21 96 -5 152
16 57 58 146 69 146 6 0 10 -18 10 -40z"/>
<path d="M821 2521 c-50 -13 -113 -64 -139 -112 -18 -36 -22 -57 -19 -114 3
-85 32 -135 104 -180 41 -26 57 -30 113 -29 52 0 73 5 107 27 118 75 146 223
61 329 -52 66 -146 99 -227 79z m114 -178 c30 -46 -2 -103 -57 -103 -44 0 -68
25 -68 70 0 32 5 40 30 52 40 19 75 12 95 -19z"/>
<path d="M9310 2521 c-14 -4 -40 -15 -57 -25 -147 -75 -149 -292 -4 -381 38
-24 57 -29 112 -29 55 0 72 4 111 29 113 71 142 233 60 331 -50 60 -158 96
-222 75z m103 -169 c25 -22 22 -77 -5 -96 -46 -33 -118 -8 -118 40 0 72 69
103 123 56z"/>
<path d="M4850 1188 c-11 -18 -25 -59 -32 -90 -9 -44 -17 -59 -32 -64 -34 -10
-64 -44 -70 -79 -8 -39 -32 -63 -47 -48 -8 8 -8 26 0 63 6 28 9 56 5 61 -10
17 -24 9 -37 -18 -23 -53 -47 -57 -47 -8 0 24 -5 35 -15 35 -20 0 -47 -43 -39
-63 3 -9 -3 -28 -15 -43 l-21 -27 -2 44 c-2 58 -2 62 -11 77 -19 30 -28 8 -25
-64 2 -62 7 -79 21 -88 16 -9 24 -5 52 27 26 30 39 38 62 35 22 -2 29 -9 33
-33 6 -32 40 -46 64 -26 9 7 22 7 43 -1 26 -10 35 -9 56 4 22 15 25 15 41 0
13 -14 21 -14 47 -5 23 9 35 9 49 1 14 -9 22 -9 35 2 12 10 19 10 27 2 25 -25
35 -11 45 58 6 49 6 73 -1 79 -45 35 -108 5 -127 -61 -18 -61 -43 -76 -58 -35
-6 16 -1 36 19 77 38 76 57 162 42 195 -16 34 -38 31 -62 -7z m38 -50 c-3 -29
-12 -69 -22 -88 l-16 -35 4 70 c5 76 13 105 28 105 7 0 9 -20 6 -52z m-82
-177 c3 -43 -15 -68 -41 -57 -22 8 -19 49 6 80 25 32 31 29 35 -23z m191 8
c-6 -46 -28 -76 -47 -64 -24 15 12 105 43 105 6 0 7 -17 4 -41z"/>
<path d="M6100 1188 c-11 -18 -25 -59 -31 -90 -7 -35 -17 -58 -25 -58 -7 0
-26 -14 -43 -31 -25 -25 -31 -39 -31 -75 0 -37 4 -46 25 -56 19 -8 29 -8 47 4
21 14 26 14 46 0 18 -12 27 -12 52 -2 25 10 36 10 55 0 33 -18 71 -5 92 30 22
37 29 37 47 1 23 -43 64 -53 114 -27 24 12 30 12 47 0 29 -21 63 -17 92 12 31
32 25 40 -14 18 -29 -17 -63 -14 -63 6 0 5 6 10 14 10 8 0 27 10 42 23 54 46
0 111 -59 72 -24 -15 -43 -49 -49 -90 -4 -26 -51 -43 -72 -25 -19 15 -21 71
-4 88 18 18 28 15 28 -8 0 -23 25 -27 34 -5 23 61 -75 69 -103 9 -13 -29 -37
-31 -46 -4 -9 29 -33 50 -59 50 -30 0 -76 -50 -76 -82 0 -29 -26 -61 -44 -55
-21 7 -17 43 14 112 33 74 46 139 36 179 -9 37 -42 34 -66 -6z m32 -103 c-8
-27 -18 -57 -24 -65 -14 -22 -2 108 13 145 l12 30 7 -30 c3 -17 0 -52 -8 -80z
m-74 -130 c-3 -42 -32 -70 -47 -47 -11 18 -2 63 17 85 21 24 34 8 30 -38z
m497 44 c8 -12 -23 -49 -42 -49 -16 0 -17 14 -3 41 12 21 35 25 45 8z m-306
-35 c11 -31 11 -38 -1 -50 -24 -24 -48 -7 -48 35 0 63 29 71 49 15z"/>
<path d="M4647 1113 c-12 -12 -7 -31 10 -37 19 -8 48 17 39 33 -8 12 -39 15
-49 4z"/>
<path d="M5653 1104 c-3 -9 0 -20 8 -25 17 -11 21 -11 38 0 19 12 6 41 -19 41
-11 0 -23 -7 -27 -16z"/>
<path d="M3922 1043 c-7 -3 -24 -28 -38 -56 -15 -29 -33 -60 -42 -70 -8 -9
-12 -20 -8 -25 4 -4 23 11 41 32 31 38 33 38 44 18 15 -28 14 -42 -2 -36 -8 3
-19 -2 -26 -10 -10 -12 -8 -17 9 -26 17 -9 32 -8 68 4 31 11 49 13 56 6 15
-15 33 -12 55 11 l19 21 7 -21 c7 -23 43 -29 61 -11 8 8 19 7 37 -1 21 -9 30
-9 42 1 12 10 19 10 27 2 25 -25 35 -11 42 59 8 77 5 84 -35 94 -22 5 -33 0
-63 -30 -21 -20 -36 -46 -36 -59 0 -29 -26 -54 -41 -39 -6 6 -6 25 0 54 24
101 4 107 -39 12 -23 -49 -33 -64 -42 -55 -8 8 -8 25 -1 62 6 32 7 53 1 56
-16 10 -30 -12 -43 -68 -7 -31 -17 -54 -26 -55 -19 -4 -55 74 -51 110 2 15 2
27 0 26 -2 0 -9 -3 -16 -6z m354 -75 c-7 -46 -27 -74 -45 -64 -29 19 6 105 43
106 5 0 6 -19 2 -42z"/>
<path d="M5792 1043 c-7 -3 -23 -26 -36 -51 -54 -106 -98 -117 -78 -20 7 35 7
56 1 63 -15 15 -37 -20 -45 -72 -4 -27 -13 -47 -25 -53 -25 -14 -31 0 -23 59
6 48 5 51 -20 61 -39 14 -42 14 -81 -25 -21 -21 -35 -45 -35 -60 0 -29 -37
-55 -46 -32 -2 7 -1 33 5 57 11 48 6 70 -16 70 -15 0 -63 -47 -63 -61 0 -5 -4
-9 -8 -9 -5 0 -7 13 -4 30 7 50 -24 52 -66 4 l-35 -39 7 38 c6 30 4 37 -9 37
-22 0 -36 -45 -33 -109 3 -61 22 -78 39 -34 43 110 54 116 54 30 0 -40 4 -52
17 -55 11 -2 18 6 22 25 9 38 44 95 55 89 5 -4 4 -23 -1 -46 -8 -30 -7 -44 2
-55 15 -18 51 -20 68 -3 9 9 17 8 37 -2 21 -11 29 -11 50 0 20 11 27 11 40 0
12 -10 21 -10 42 -1 18 8 29 9 37 1 27 -27 71 -3 119 64 14 19 15 19 26 -3 14
-25 9 -36 -17 -36 -10 0 -17 -8 -17 -20 0 -27 40 -32 66 -9 24 22 24 51 -1 89
-14 20 -18 39 -14 58 3 15 4 27 2 26 -2 0 -9 -3 -16 -6z m-247 -75 c-8 -47
-27 -74 -44 -64 -18 11 -13 51 10 80 30 39 42 33 34 -16z"/>
<path d="M3606 845 c-28 -28 -17 -46 36 -62 40 -12 58 -3 58 28 0 36 -67 61
-94 34z"/>
<path d="M6654 840 c-42 -17 -40 -70 1 -70 13 0 36 5 50 10 21 8 26 16 23 38
-2 21 -9 27 -28 29 -14 1 -34 -2 -46 -7z"/>
<path d="M4027 723 c-18 -17 -6 -51 22 -63 36 -15 60 -11 75 13 9 15 7 22 -13
38 -23 18 -71 26 -84 12z"/>
<path d="M5788 649 c-41 -23 -13 -71 36 -62 39 7 56 20 56 43 0 29 -56 40 -92
19z"/>
<path d="M4462 638 c-33 -33 -2 -71 55 -66 33 3 38 7 41 30 3 22 -2 30 -23 38
-35 13 -58 13 -73 -2z"/>
<path d="M5344 585 c-4 -9 -1 -22 6 -28 10 -9 11 -9 5 2 -4 7 -2 16 5 21 9 5
9 9 1 14 -6 4 -14 0 -17 -9z"/>
<path d="M5405 560 c-8 -13 5 -13 25 0 13 8 13 10 -2 10 -9 0 -20 -4 -23 -10z"/>
</g>
</svg>
